<svg width="120" height="40" viewBox="0 0 120 40" fill="none" xmlns="http://www.w3.org/2000/svg">
<g clip-path="url(#clip0)">
<path d="M110.444 3.00293e-07H9.56145C9.19372 3.00293e-07 8.8304 3.00352e-07 8.46364 0.0020003C8.15663 0.0040003 7.85207 0.0098103 7.54211 0.0147003C6.86874 0.0226021 6.19695 0.0816766 5.53259 0.19141C4.86915 0.303533 4.2265 0.514916 3.62637 0.81841C3.02697 1.12447 2.47929 1.52217 2.00318 1.99707C1.52457 2.47064 1.12561 3.01802 0.82165 3.61816C0.516847 4.21711 0.305496 4.85894 0.194896 5.52148C0.083244 6.18319 0.0231632 6.85252 0.0151925 7.52348C0.00588648 7.83008 0.00490373 8.1377 0 8.44434V31.5586C0.00490373 31.8691 0.00588648 32.1699 0.0151925 32.4805C0.0231657 33.1514 0.0832464 33.8207 0.194896 34.4824C0.30519 35.1453 0.516554 35.7875 0.82165 36.3867C1.12548 36.9849 1.52449 37.5301 2.00318 38.001C2.47748 38.478 3.02552 38.876 3.62637 39.1797C4.2265 39.484 4.86908 39.6966 5.53259 39.8105C6.19707 39.9194 6.86879 39.9785 7.54211 39.9873C7.85207 39.9941 8.15663 39.998 8.46364 39.998C8.83039 40 9.19374 40 9.56145 40H110.444C110.804 40 111.171 40 111.531 39.998C111.837 39.998 112.15 39.9941 112.455 39.9873C113.128 39.9789 113.798 39.9198 114.461 39.8105C115.127 39.6958 115.772 39.4833 116.375 39.1797C116.975 38.8758 117.522 38.4778 117.996 38.001C118.474 37.5282 118.874 36.9835 119.181 36.3867C119.484 35.7871 119.693 35.1449 119.802 34.4824C119.914 33.8206 119.976 33.1515 119.988 32.4805C119.992 32.1699 119.992 31.8691 119.992 31.5586C120 31.1953 120 30.834 120 30.4648V9.53613C120 9.16992 120 8.80664 119.992 8.44434C119.992 8.1377 119.992 7.83008 119.988 7.52344C119.976 6.85242 119.914 6.18324 119.802 5.52144C119.693 4.85928 119.484 4.2175 119.181 3.61812C118.562 2.4152 117.581 1.43603 116.375 0.81832C115.772 0.515568 115.127 0.304241 114.461 0.19132C113.798 0.0811031 113.128 0.0220081 112.455 0.0145603C112.15 0.0096803 111.837 0.0038203 111.531 0.0018703C111.171 -0.0001297 110.804 -0.0001297 110.444 -0.0001297V3.00293e-07Z" fill="#A6A6A6"/>
<path d="M8.46856 39.125C8.16303 39.125 7.86487 39.1211 7.56174 39.1143C6.93376 39.1061 6.30725 39.0516 5.68735 38.9512C5.10932 38.8519 4.54937 38.6673 4.02596 38.4033C3.50735 38.1415 3.03433 37.7983 2.62504 37.3867C2.20981 36.98 1.86412 36.5082 1.60166 35.9902C1.33631 35.4688 1.15267 34.9099 1.05714 34.333C0.953972 33.7131 0.898156 33.0863 0.890169 32.458C0.883812 32.2471 0.875488 31.5449 0.875488 31.5449V8.44434C0.875488 8.44434 0.884353 7.75293 0.89022 7.5498C0.897867 6.92248 0.953358 6.29665 1.05621 5.67773C1.15192 5.09925 1.3357 4.53875 1.6012 4.01563C1.8627 3.49794 2.20647 3.02586 2.61919 2.61768C3.03145 2.20562 3.50597 1.8606 4.02547 1.59521C4.54767 1.33209 5.10657 1.14873 5.68343 1.05127C6.30537 0.949836 6.93405 0.894996 7.5642 0.88721L8.46906 0.875H111.526L112.442 0.8877C113.066 0.895099 113.689 0.94945 114.305 1.05029C114.888 1.14898 115.453 1.33362 115.981 1.59814C117.022 2.13299 117.869 2.97916 118.403 4.01807C118.664 4.53758 118.845 5.09351 118.939 5.66699C119.044 6.29099 119.102 6.92174 119.114 7.5542C119.117 7.8374 119.117 8.1416 119.117 8.44434C119.125 8.81934 119.125 9.17627 119.125 9.53613V30.4648C119.125 30.8281 119.125 31.1826 119.117 31.54C119.117 31.8652 119.117 32.1631 119.113 32.4697C119.101 33.0909 119.044 33.7104 118.941 34.3232C118.848 34.9043 118.665 35.4675 118.4 35.9932C118.136 36.5056 117.792 36.9733 117.381 37.3789C116.972 37.7927 116.498 38.1379 115.978 38.4014C115.451 38.6674 114.887 38.8527 114.305 38.9512C113.686 39.0522 113.059 39.1067 112.431 39.1143C112.137 39.1211 111.83 39.125 111.531 39.125L110.444 39.127L8.46856 39.125Z" fill="black"/>
<path d="M24.8384 20.3007C24.8492 19.466 25.0715 18.6476 25.4847 17.9217C25.8978 17.1957 26.4885 16.5858 27.2015 16.1486C26.7485 15.5035 26.1509 14.9725 25.4561 14.598C24.7614 14.2234 23.9886 14.0156 23.1992 13.9909C21.5152 13.8147 19.8827 14.9958 19.0246 14.9958C18.1499 14.9958 16.8287 14.0084 15.406 14.0376C14.4857 14.0673 13.5889 14.3341 12.8028 14.8122C12.0167 15.2902 11.3682 15.9632 10.9205 16.7655C8.98105 20.1139 10.4277 25.035 12.2855 27.7416C13.215 29.0669 14.3013 30.5474 15.7228 30.4949C17.1137 30.4374 17.6332 29.6104 19.3122 29.6104C20.9756 29.6104 21.463 30.4949 22.9133 30.4615C24.4058 30.4373 25.3462 29.1303 26.2431 27.7924C26.911 26.848 27.4249 25.8043 27.7658 24.6999C26.8987 24.3341 26.1587 23.7219 25.6381 22.9396C25.1175 22.1574 24.8394 21.2395 24.8384 20.3007Z" fill="white"/>
<path d="M22.0991 12.2109C22.9129 11.2367 23.3138 9.9845 23.2167 8.72027C21.9734 8.85049 20.8249 9.44305 20.0001 10.3799C19.5968 10.8375 19.288 11.37 19.0912 11.9467C18.8944 12.5235 18.8135 13.1333 18.8532 13.7413C19.4751 13.7477 20.0903 13.6132 20.6525 13.3482C21.2148 13.0831 21.7094 12.6942 22.0991 12.2109Z" fill="white"/>
<path d="M42.421 27.1397H37.6743L36.5344 30.4961H34.5239L39.0199 18.0781H41.1088L45.6047 30.4961H43.56L42.421 27.1397ZM38.166 25.5908H41.9285L40.0737 20.1436H40.0218L38.166 25.5908Z" fill="white"/>
<path d="M55.3145 25.9697C55.3145 28.7832 53.8044 30.5908 51.5256 30.5908C50.9483 30.6209 50.3742 30.4883 49.869 30.2082C49.3638 29.9281 48.9479 29.5117 48.6689 29.0068H48.6258V33.4912H46.7622V21.4424H48.5661V22.9482H48.6004C48.8922 22.4458 49.3151 22.0316 49.8241 21.7497C50.3332 21.4679 50.9093 21.3289 51.4913 21.3477C53.7956 21.3477 55.3145 23.1641 55.3145 25.9697ZM53.399 25.9697C53.399 24.1367 52.449 22.9316 50.9997 22.9316C49.5758 22.9316 48.618 24.1621 48.618 25.9697C48.618 27.794 49.5758 29.0156 50.9997 29.0156C52.4491 29.0156 53.399 27.8193 53.399 25.9697Z" fill="white"/>
<path d="M65.3074 25.9697C65.3074 28.7832 63.7973 30.5908 61.5185 30.5908C60.9412 30.6209 60.3671 30.4883 59.8619 30.2082C59.3567 29.9281 58.9408 29.5117 58.6619 29.0068H58.6187V33.4912H56.7551V21.4424H58.559V22.9482H58.5933C58.885 22.4458 59.308 22.0316 59.817 21.7497C60.3261 21.4679 60.9022 21.3289 61.4842 21.3477C63.7885 21.3477 65.3074 23.1641 65.3074 25.9697ZM63.3919 25.9697C63.3919 24.1367 62.442 22.9316 60.9926 22.9316C59.5687 22.9316 58.6109 24.1621 58.6109 25.9697C58.6109 27.794 59.5687 29.0156 60.9926 29.0156C62.442 29.0156 63.3919 27.8193 63.3919 25.9697H63.3919Z" fill="white"/>
<path d="M71.9117 27.0361C72.0498 28.2676 73.2495 29.0761 74.8888 29.0761C76.4596 29.0761 77.5898 28.2675 77.5898 27.1572C77.5898 26.1933 76.9081 25.6162 75.2943 25.2207L73.6804 24.833C71.3937 24.2822 70.3321 23.2158 70.3321 21.4853C70.3321 19.3427 72.2046 17.871 74.8634 17.871C77.4947 17.871 79.2986 19.3427 79.3594 21.4853H77.4781C77.3655 20.246 76.3382 19.498 74.8369 19.498C73.3356 19.498 72.3083 20.2548 72.3083 21.3564C72.3083 22.2343 72.9645 22.7509 74.5696 23.1464L75.9416 23.4823C78.4966 24.0849 79.5581 25.1083 79.5581 26.9247C79.5581 29.248 77.7023 30.703 74.7507 30.703C71.9891 30.703 70.1245 29.2821 70.004 27.036L71.9117 27.0361Z" fill="white"/>
<path d="M83.5802 19.2998V21.4424H85.3067V22.9141H83.5802V27.9053C83.5802 28.6807 83.9259 29.042 84.6849 29.042C84.8898 29.0384 85.0945 29.0241 85.2979 28.999V30.4619C84.9567 30.5255 84.6099 30.5543 84.2628 30.5478C82.4246 30.5478 81.7078 29.8593 81.7078 28.1035V22.9141H80.3877V21.4424H81.7078V19.2998H83.5802Z" fill="white"/>
<path d="M86.3066 25.9697C86.3066 23.1211 87.9891 21.3311 90.6126 21.3311C93.245 21.3311 94.9196 23.1211 94.9196 25.9697C94.9196 28.8262 93.2538 30.6084 90.6126 30.6084C87.9724 30.6084 86.3066 28.8262 86.3066 25.9697ZM93.0207 25.9697C93.0207 24.0156 92.1227 22.8623 90.6126 22.8623C89.1025 22.8623 88.2055 24.0244 88.2055 25.9697C88.2055 27.9316 89.1025 29.0762 90.6126 29.0762C92.1227 29.0762 93.0207 27.9316 93.0207 25.9697H93.0207Z" fill="white"/>
<path d="M96.4561 21.4424H98.2335V22.9834H98.2766C98.3969 22.5021 98.6796 22.0768 99.0773 21.7789C99.475 21.481 99.9634 21.3287 100.46 21.3476C100.675 21.3469 100.889 21.3702 101.099 21.417V23.1553C100.828 23.0726 100.545 23.0347 100.262 23.043C99.9909 23.032 99.721 23.0796 99.4704 23.1825C99.2199 23.2854 98.9946 23.4411 98.8102 23.639C98.6257 23.8369 98.4863 24.0723 98.4016 24.3289C98.317 24.5856 98.289 24.8575 98.3197 25.126V30.4961H96.4561L96.4561 21.4424Z" fill="white"/>
<path d="M109.691 27.8369C109.441 29.4805 107.836 30.6084 105.782 30.6084C103.141 30.6084 101.501 28.8437 101.501 26.0127C101.501 23.1729 103.15 21.3311 105.704 21.3311C108.216 21.3311 109.795 23.0518 109.795 25.7969V26.4336H103.383V26.5459C103.353 26.8791 103.395 27.2148 103.505 27.5306C103.616 27.8464 103.793 28.1352 104.024 28.3778C104.255 28.6203 104.535 28.8111 104.845 28.9374C105.156 29.0637 105.49 29.1226 105.825 29.1103C106.265 29.1515 106.707 29.0498 107.085 28.8203C107.463 28.5909 107.756 28.246 107.922 27.8369L109.691 27.8369ZM103.392 25.1348H107.931C107.947 24.8352 107.902 24.5354 107.797 24.2541C107.692 23.9729 107.53 23.7164 107.321 23.5006C107.111 23.2849 106.86 23.1145 106.582 23.0003C106.303 22.8861 106.004 22.8305 105.704 22.8369C105.4 22.8351 105.099 22.8933 104.819 23.008C104.538 23.1227 104.282 23.2918 104.067 23.5054C103.853 23.7191 103.682 23.973 103.566 24.2527C103.45 24.5323 103.391 24.8321 103.392 25.1348V25.1348Z" fill="white"/>
<path d="M35.5272 11.7163C35.5272 9.78125 36.5594 8.58594 38.2223 8.58594C38.8216 8.55634 39.4102 8.75256 39.8712 9.13563C40.3321 9.5187 40.6318 10.0606 40.7107 10.6538H39.7852C39.7076 10.3023 39.5085 9.98913 39.2228 9.76912C38.9371 9.54911 38.583 9.43623 38.2223 9.4502C37.148 9.4502 36.4762 10.3228 36.4762 11.7163C36.4762 13.106 37.148 13.978 38.2262 13.978C38.5737 14.004 38.9194 13.9084 39.204 13.7077C39.4885 13.507 39.694 13.2138 39.7852 12.8784H40.7107C40.6204 13.4575 40.3145 13.9813 39.854 14.3453C39.3934 14.7094 38.8122 14.8868 38.2262 14.8423C36.5634 14.8423 35.5272 13.6475 35.5272 11.7163Z" fill="white"/>
<path d="M41.7272 12.4443C41.6988 12.1484 41.7328 11.8499 41.8269 11.5678C41.921 11.2857 42.0732 11.0264 42.2737 10.8064C42.4742 10.5864 42.7186 10.4106 42.9912 10.2904C43.2638 10.1701 43.5586 10.108 43.8567 10.108C44.1548 10.108 44.4496 10.1701 44.7223 10.2904C44.9949 10.4106 45.2393 10.5864 45.4398 10.8064C45.6403 11.0264 45.7925 11.2857 45.8866 11.5678C45.9807 11.8499 46.0146 12.1484 45.9862 12.4443C46.0152 12.7406 45.9816 13.0395 45.8878 13.3221C45.7939 13.6046 45.6418 13.8644 45.4413 14.0848C45.2407 14.3052 44.9961 14.4814 44.7232 14.6019C44.4503 14.7224 44.1552 14.7847 43.8567 14.7847C43.5583 14.7847 43.2631 14.7224 42.9902 14.6019C42.7173 14.4814 42.4728 14.3052 42.2722 14.0848C42.0717 13.8644 41.9196 13.6046 41.8257 13.3221C41.7319 13.0395 41.6983 12.7406 41.7272 12.4443ZM45.0696 12.4443C45.0696 11.4683 44.6299 10.8975 43.8582 10.8975C43.0836 10.8975 42.6478 11.4683 42.6478 12.4444C42.6478 13.4282 43.0836 13.9946 43.8582 13.9946C44.6299 13.9946 45.0696 13.4243 45.0696 12.4443H45.0696Z" fill="white"/>
<path d="M47.1819 10.1948H48.0398V10.9102H48.1064C48.2193 10.6532 48.4099 10.4379 48.6514 10.2941C48.893 10.1502 49.1735 10.0852 49.4539 10.1079C49.6736 10.0914 49.8942 10.1245 50.0994 10.2046C50.3046 10.2847 50.489 10.4098 50.6391 10.5706C50.7892 10.7314 50.9011 10.9239 50.9665 11.1337C51.0319 11.3435 51.0491 11.5654 51.0168 11.7827V14.6977H50.1257V12.0059C50.1257 11.2822 49.8103 10.9224 49.1513 10.9224C49.0021 10.9154 48.8532 10.9408 48.7147 10.9966C48.5763 11.0524 48.4516 11.1374 48.3492 11.2458C48.2468 11.3542 48.1691 11.4834 48.1214 11.6245C48.0737 11.7657 48.0573 11.9154 48.0731 12.0635V14.6978H47.1819V10.1948Z" fill="white"/>
<path d="M54.0459 10.1079C55.0614 10.1079 55.7254 10.5791 55.8125 11.373H54.9576C54.8754 11.0425 54.5512 10.8315 54.0459 10.8315C53.5484 10.8315 53.1704 11.0669 53.1704 11.4185C53.1704 11.6875 53.3986 11.8569 53.8883 11.9688L54.6384 12.1421C55.4972 12.3408 55.8997 12.709 55.8997 13.3706C55.8997 14.2183 55.1075 14.7847 54.0292 14.7847C52.9549 14.7847 52.2547 14.3008 52.1754 13.5029H53.0676C53.1445 13.6928 53.2831 13.8515 53.4612 13.9534C53.6393 14.0553 53.8466 14.0946 54.0498 14.0649C54.6051 14.0649 54.9998 13.8169 54.9998 13.457C54.9998 13.1885 54.7882 13.0146 54.3358 12.9072L53.5484 12.7251C52.6896 12.5224 52.292 12.1382 52.292 11.4683C52.292 10.6699 53.0255 10.1079 54.0459 10.1079Z" fill="white"/>
<path d="M57.0249 9.44189L58.0659 8.01953H59.1108L57.9454 9.44189H57.0249ZM57.117 10.1948H58.0042V14.6978H57.117V10.1948Z" fill="white"/>
<path d="M59.3919 15.1484H60.3036C60.379 15.4751 60.756 15.686 61.3573 15.686C62.0996 15.686 62.5393 15.3345 62.5393 14.7393V13.875H62.4727C62.333 14.1169 62.1288 14.3156 61.8829 14.4491C61.637 14.5826 61.3588 14.6456 61.0792 14.6314C59.9266 14.6314 59.2136 13.7427 59.2136 12.3945C59.2136 11.0215 59.9344 10.1201 61.088 10.1201C61.3746 10.1102 61.6585 10.179 61.9086 10.319C62.1587 10.459 62.3653 10.6649 62.506 10.9141H62.5765V10.1948H63.4305V14.7348C63.4305 15.7646 62.6216 16.4179 61.3446 16.4179C60.2164 16.418 59.4868 15.9136 59.3919 15.1484ZM62.556 12.3901C62.556 11.4931 62.0908 10.9185 61.3319 10.9185C60.5651 10.9185 60.1342 11.4932 60.1342 12.3901C60.1342 13.2876 60.5651 13.8623 61.3319 13.8623C62.0957 13.8623 62.556 13.292 62.556 12.3901Z" fill="white"/>
<path d="M68.6576 14.6978H67.7987V13.9824H67.7282C67.6141 14.242 67.4209 14.4592 67.176 14.6032C66.9312 14.7472 66.6471 14.8107 66.3641 14.7847C66.1456 14.8001 65.9265 14.7666 65.7228 14.6866C65.5191 14.6066 65.3359 14.4821 65.1867 14.3223C65.0375 14.1625 64.9261 13.9714 64.8606 13.763C64.7952 13.5546 64.7773 13.3343 64.8084 13.1182V10.1948H65.7011V12.8867C65.7011 13.6143 65.9949 13.9619 66.65 13.9619C66.8019 13.9763 66.9551 13.9567 67.0985 13.9045C67.2418 13.8523 67.3716 13.7689 67.4785 13.6603C67.5854 13.5517 67.6666 13.4207 67.7163 13.2768C67.7659 13.1329 67.7827 12.9798 67.7654 12.8286V10.1948H68.6576V14.6978Z" fill="white"/>
<path d="M73.8959 13.4819C73.7749 13.8935 73.5125 14.2495 73.1548 14.4876C72.7971 14.7258 72.3669 14.8309 71.9393 14.7847C71.6418 14.7925 71.3461 14.7357 71.0729 14.6181C70.7996 14.5006 70.5553 14.3252 70.3568 14.1041C70.1583 13.8829 70.0105 13.6214 69.9236 13.3375C69.8366 13.0537 69.8127 12.7544 69.8534 12.4604C69.8137 12.1656 69.8381 11.8656 69.9249 11.581C70.0116 11.2963 70.1586 11.0335 70.3561 10.8104C70.5535 10.5874 70.7967 10.4092 71.0691 10.288C71.3416 10.1668 71.637 10.1054 71.9354 10.1079C73.1918 10.1079 73.9498 10.9639 73.9498 12.3779V12.688H70.7612V12.7378C70.7472 12.903 70.768 13.0694 70.8223 13.2261C70.8766 13.3829 70.9631 13.5266 71.0763 13.648C71.1895 13.7695 71.327 13.866 71.4798 13.9314C71.6326 13.9968 71.7975 14.0296 71.9637 14.0278C72.1769 14.0533 72.3929 14.015 72.5842 13.9178C72.7755 13.8206 72.9335 13.6689 73.038 13.4819L73.8959 13.4819ZM70.7612 12.0308H73.0419C73.0532 11.8796 73.0326 11.7278 72.9815 11.5851C72.9304 11.4424 72.8499 11.3119 72.7452 11.2021C72.6406 11.0922 72.514 11.0054 72.3737 10.9472C72.2333 10.889 72.0824 10.8608 71.9304 10.8643C71.7763 10.8623 71.6233 10.8912 71.4806 10.9491C71.3378 11.0071 71.2081 11.0929 71.0991 11.2016C70.9902 11.3104 70.9041 11.4397 70.8461 11.5821C70.788 11.7245 70.7592 11.8771 70.7612 12.0308Z" fill="white"/>
<path d="M75.1876 8.437H76.0788V14.6977H75.1876V8.437Z" fill="white"/>
<path d="M77.3176 12.4443C77.2892 12.1484 77.3231 11.8499 77.4172 11.5678C77.5113 11.2857 77.6635 11.0264 77.864 10.8064C78.0645 10.5864 78.3089 10.4106 78.5815 10.2904C78.8541 10.1701 79.149 10.108 79.4471 10.108C79.7452 10.108 80.04 10.1701 80.3126 10.2904C80.5852 10.4106 80.8296 10.5864 81.0301 10.8064C81.2306 11.0264 81.3828 11.2857 81.4769 11.5678C81.571 11.8499 81.6049 12.1484 81.5766 12.4443C81.6055 12.7406 81.5719 13.0395 81.4781 13.3221C81.3842 13.6046 81.2321 13.8644 81.0316 14.0848C80.831 14.3052 80.5865 14.4814 80.3136 14.6019C80.0407 14.7224 79.7455 14.7847 79.4471 14.7847C79.1486 14.7847 78.8535 14.7224 78.5806 14.6019C78.3077 14.4814 78.0631 14.3052 77.8625 14.0848C77.662 13.8644 77.5099 13.6046 77.416 13.3221C77.3222 13.0395 77.2886 12.7406 77.3176 12.4443ZM80.6599 12.4443C80.6599 11.4683 80.2202 10.8975 79.4485 10.8975C78.6739 10.8975 78.2381 11.4683 78.2381 12.4444C78.2381 13.4282 78.6739 13.9946 79.4485 13.9946C80.2202 13.9946 80.6599 13.4243 80.6599 12.4443H80.6599Z" fill="white"/>
<path d="M89.0408 13.4819C88.9197 13.8935 88.6574 14.2495 88.2997 14.4876C87.942 14.7258 87.5118 14.8309 87.0842 14.7847C86.7867 14.7925 86.491 14.7357 86.2178 14.6181C85.9445 14.5006 85.7002 14.3252 85.5017 14.1041C85.3032 13.8829 85.1554 13.6214 85.0685 13.3375C84.9815 13.0537 84.9576 12.7544 84.9983 12.4604C84.9586 12.1656 84.983 11.8656 85.0698 11.581C85.1565 11.2963 85.3035 11.0335 85.501 10.8104C85.6984 10.5874 85.9416 10.4092 86.214 10.288C86.4865 10.1668 86.7819 10.1054 87.0803 10.1079C88.3367 10.1079 89.0947 10.9639 89.0947 12.3779V12.688H85.9061V12.7378C85.8921 12.903 85.913 13.0694 85.9672 13.2261C86.0215 13.3829 86.108 13.5266 86.2213 13.648C86.3345 13.7695 86.4719 13.866 86.6247 13.9314C86.7776 13.9968 86.9424 14.0296 87.1087 14.0278C87.3218 14.0533 87.5378 14.015 87.7291 13.9178C87.9204 13.8206 88.0784 13.6689 88.183 13.4819L89.0408 13.4819ZM85.9061 12.0308H88.1869C88.1982 11.8796 88.1776 11.7278 88.1265 11.5851C88.0754 11.4424 87.9949 11.3119 87.8902 11.2021C87.7855 11.0922 87.659 11.0054 87.5186 10.9472C87.3783 10.889 87.2273 10.8608 87.0754 10.8643C86.9213 10.8623 86.7683 10.8912 86.6255 10.9491C86.4828 11.0071 86.3531 11.0929 86.2441 11.2016C86.1351 11.3103 86.049 11.4397 85.991 11.5821C85.933 11.7245 85.9041 11.8771 85.9061 12.0308H85.9061Z" fill="white"/>
<path d="M90.2914 10.1948H91.1493V10.9102H91.2159C91.3288 10.6532 91.5194 10.4379 91.7609 10.2941C92.0025 10.1502 92.283 10.0852 92.5634 10.1079C92.7831 10.0914 93.0037 10.1245 93.2089 10.2046C93.414 10.2847 93.5985 10.4098 93.7486 10.5706C93.8987 10.7314 94.0106 10.9239 94.076 11.1337C94.1414 11.3435 94.1586 11.5654 94.1263 11.7827V14.6977H93.2352V12.0059C93.2352 11.2822 92.9198 10.9224 92.2608 10.9224C92.1116 10.9154 91.9627 10.9408 91.8242 10.9966C91.6858 11.0524 91.5611 11.1374 91.4587 11.2458C91.3563 11.3542 91.2786 11.4834 91.2309 11.6245C91.1832 11.7657 91.1667 11.9154 91.1825 12.0635V14.6978H90.2914V10.1948Z" fill="white"/>
<path d="M101.773 13.4819C101.652 13.8935 101.389 14.2495 101.032 14.4876C100.674 14.7258 100.244 14.8309 99.8161 14.7847C99.5186 14.7925 99.223 14.7357 98.9497 14.6181C98.6764 14.5006 98.4321 14.3252 98.2336 14.1041C98.0352 13.8829 97.8873 13.6214 97.8004 13.3375C97.7135 13.0537 97.6895 12.7544 97.7302 12.4604C97.6906 12.1656 97.715 11.8656 97.8017 11.581C97.8884 11.2963 98.0355 11.0335 98.2329 10.8104C98.4303 10.5874 98.6735 10.4092 98.946 10.288C99.2184 10.1668 99.5139 10.1054 99.8122 10.1079C101.069 10.1079 101.827 10.9639 101.827 12.3779V12.688H98.638V12.7378C98.6241 12.903 98.6449 13.0694 98.6992 13.2261C98.7534 13.3829 98.84 13.5266 98.9532 13.648C99.0664 13.7695 99.2038 13.866 99.3567 13.9314C99.5095 13.9968 99.6743 14.0296 99.8406 14.0278C100.054 14.0533 100.27 14.015 100.461 13.9178C100.652 13.8206 100.81 13.6689 100.915 13.4819L101.773 13.4819ZM98.638 12.0308H100.919C100.93 11.8796 100.909 11.7278 100.858 11.5851C100.807 11.4424 100.727 11.3119 100.622 11.2021C100.517 11.0922 100.391 11.0054 100.251 10.9472C100.11 10.889 99.9592 10.8608 99.8073 10.8643C99.6531 10.8623 99.5002 10.8912 99.3574 10.9491C99.2146 11.0071 99.085 11.0929 98.976 11.2017C98.867 11.3104 98.781 11.4397 98.7229 11.5821C98.6649 11.7245 98.636 11.8771 98.638 12.0308H98.638Z" fill="white"/>
<path d="M103.064 8.437H103.956V14.6977H103.064V8.437Z" fill="white"/>
</g>
<defs>
<clipPath id="clip0">
<rect width="120" height="40" fill="white"/>
</clipPath>
</defs>
</svg>
