<svg width="112" height="40" viewBox="0 0 112 40" fill="none" xmlns="http://www.w3.org/2000/svg">
<path d="M111.715 0.294868H0.298096V39.718H111.715V0.294868Z" fill="black"/>
<path d="M0.583333 0.576923H111.417V39.4231H0.583333V0.576923ZM0 40H112V0H0V40Z" fill="#D2D2D2"/>
<path d="M111.689 0.294868H0.285278V39.718H111.689V0.294868Z" fill="black"/>
<path d="M0.583333 0.576923H111.404V39.4231H0.583333V0.576923ZM0 40H111.987V0H0V40Z" fill="#D2D2D2"/>
<path d="M52.6815 20.8077C52.6815 20.4872 52.7982 20.2308 53.0315 20.0128C53.2649 19.7949 53.5371 19.6923 53.8482 19.6923C54.1852 19.6923 54.4704 19.8077 54.6908 20.0128C54.9111 20.2308 55.0278 20.4872 55.0278 20.7949C55.0278 21.1026 54.9111 21.359 54.6908 21.5769C54.4574 21.7821 54.1852 21.8974 53.8611 21.8974C53.5371 21.8974 53.2519 21.7949 53.0315 21.5769C52.7982 21.3718 52.6815 21.1154 52.6815 20.8077ZM54.8074 31.218H52.8889V23.141H54.8074V31.218Z" fill="white"/>
<path d="M60.6408 29.8333C60.926 29.8333 61.2371 29.7692 61.5871 29.641C61.9241 29.5128 62.2482 29.3333 62.5463 29.1282V30.8974C62.2352 31.0769 61.8852 31.2051 61.4964 31.2949C61.1075 31.3846 60.6797 31.4231 60.213 31.4231C59.0075 31.4231 58.0353 31.0513 57.2834 30.2949C56.5316 29.5385 56.1556 28.5769 56.1556 27.4103C56.1556 26.1154 56.5445 25.0385 57.3093 24.1923C58.0741 23.3462 59.163 22.9359 60.576 22.9359C60.9389 22.9359 61.3019 22.9872 61.6649 23.0769C62.0278 23.1667 62.326 23.2692 62.5463 23.3974V25.2179C62.2482 25 61.9501 24.8333 61.6389 24.718C61.3278 24.6026 61.0167 24.5385 60.6927 24.5385C59.9408 24.5385 59.3186 24.7821 58.8519 25.2692C58.3853 25.7564 58.1519 26.4103 58.1519 27.2436C58.1519 28.0641 58.3723 28.6923 58.826 29.1538C59.2667 29.6154 59.876 29.8333 60.6408 29.8333Z" fill="white"/>
<path d="M68.0167 23.0128C68.1723 23.0128 68.3019 23.0256 68.4315 23.0385C68.5482 23.0641 68.6519 23.0897 68.7426 23.1154V25.0385C68.6389 24.9615 68.4963 24.8974 68.3019 24.8333C68.1075 24.7692 67.8741 24.7308 67.6019 24.7308C67.1352 24.7308 66.7334 24.9231 66.4093 25.3205C66.0852 25.7179 65.9167 26.3205 65.9167 27.141V31.2179H63.9982V23.141H65.9167V24.4102H65.9426C66.1241 23.9743 66.3834 23.6282 66.7334 23.3718C67.0834 23.1282 67.5111 23.0128 68.0167 23.0128Z" fill="white"/>
<path d="M68.8463 27.2949C68.8463 25.9615 69.2222 24.8974 69.9871 24.1154C70.7519 23.3333 71.8148 22.9487 73.163 22.9487C74.4334 22.9487 75.4315 23.3205 76.1574 24.0769C76.8704 24.8333 77.2333 25.8462 77.2333 27.1282C77.2333 28.4359 76.8574 29.4872 76.0926 30.2564C75.3278 31.0385 74.2908 31.4231 72.9815 31.4231C71.7111 31.4231 70.713 31.0513 69.9611 30.3205C69.2093 29.5769 68.8463 28.5769 68.8463 27.2949ZM70.8426 27.2308C70.8426 28.0769 71.0371 28.7179 71.4259 29.1667C71.8148 29.6154 72.3722 29.8333 73.0852 29.8333C73.7852 29.8333 74.3167 29.6154 74.6796 29.1667C75.0426 28.7179 75.2241 28.0641 75.2241 27.1923C75.2241 26.3205 75.0296 25.6667 74.6537 25.2179C74.2778 24.7692 73.7463 24.5513 73.0593 24.5513C72.3593 24.5513 71.8148 24.782 71.413 25.2436C71.0371 25.7179 70.8426 26.3718 70.8426 27.2308Z" fill="white"/>
<path d="M80.0981 25.2692C80.0981 25.5385 80.1889 25.7564 80.3574 25.9103C80.5259 26.0641 80.9148 26.2564 81.5241 26.5C82.2889 26.8077 82.8333 27.141 83.1444 27.5256C83.4556 27.9103 83.6111 28.3718 83.6111 28.9103C83.6111 29.6667 83.313 30.2821 82.7296 30.7436C82.1333 31.2051 81.3426 31.4359 80.3315 31.4359C79.9944 31.4359 79.6185 31.3974 79.2037 31.3077C78.7889 31.2308 78.4389 31.1282 78.1537 31V29.1282C78.5037 29.3718 78.8796 29.5641 79.2815 29.7051C79.6833 29.8462 80.0463 29.9231 80.3833 29.9231C80.8241 29.9231 81.1352 29.859 81.3426 29.7436C81.55 29.6282 81.6537 29.4231 81.6537 29.141C81.6537 28.8846 81.55 28.6538 81.3296 28.4744C81.1093 28.2949 80.7074 28.0897 80.1111 27.8462C79.3981 27.5513 78.8926 27.2179 78.6074 26.859C78.3092 26.4872 78.1666 26.0256 78.1666 25.4615C78.1666 24.7308 78.4648 24.141 79.0481 23.6667C79.6315 23.1923 80.3963 22.9615 81.3296 22.9615C81.6148 22.9615 81.9389 22.9872 82.2889 23.0513C82.6389 23.1154 82.937 23.1923 83.1833 23.2949V25.1026C82.9241 24.9359 82.6259 24.7949 82.2889 24.6667C81.9518 24.5513 81.6148 24.4872 81.2778 24.4872C80.9148 24.4872 80.6296 24.5641 80.4222 24.7051C80.1889 24.8205 80.0981 25.0128 80.0981 25.2692Z" fill="white"/>
<path d="M84.4408 27.2949C84.4408 25.9615 84.8167 24.8974 85.5815 24.1154C86.3464 23.3333 87.4093 22.9487 88.7575 22.9487C90.0278 22.9487 91.026 23.3205 91.7519 24.0769C92.4649 24.8333 92.8278 25.8462 92.8278 27.1282C92.8278 28.4359 92.4519 29.4872 91.6871 30.2564C90.9223 31.0385 89.8852 31.4231 88.576 31.4231C87.3056 31.4231 86.3075 31.0513 85.5556 30.3205C84.8167 29.5769 84.4408 28.5769 84.4408 27.2949ZM86.4371 27.2308C86.4371 28.0769 86.6315 28.7179 87.0204 29.1667C87.4093 29.6154 87.9667 29.8333 88.6797 29.8333C89.3797 29.8333 89.9112 29.6154 90.2741 29.1667C90.6371 28.7179 90.8186 28.0641 90.8186 27.1923C90.8186 26.3205 90.6241 25.6667 90.2482 25.2179C89.8723 24.7692 89.3408 24.5513 88.6538 24.5513C87.9538 24.5513 87.3964 24.782 87.0075 25.2436C86.6315 25.7179 86.4371 26.3718 86.4371 27.2308Z" fill="white"/>
<path d="M99.1926 24.6923V28.8462C99.1926 29.7051 99.4 30.3462 99.8019 30.7821C100.204 31.2051 100.813 31.4231 101.63 31.4231C101.902 31.4231 102.187 31.3974 102.472 31.3333C102.757 31.2821 102.952 31.2179 103.081 31.141V29.5641C102.965 29.641 102.822 29.7051 102.667 29.7564C102.511 29.8077 102.381 29.8333 102.265 29.8333C101.876 29.8333 101.591 29.7308 101.409 29.5256C101.228 29.3205 101.137 28.9744 101.137 28.4744V24.6923H103.081V23.141H101.137V20.7436L99.2056 21.3205V23.141H96.3407V22.1667C96.3407 21.6795 96.4444 21.3077 96.6648 21.0641C96.8852 20.8205 97.1963 20.6923 97.5982 20.6923C97.8056 20.6923 97.987 20.718 98.1426 20.7692C98.2981 20.8205 98.4148 20.8718 98.4796 20.8974V19.2564C98.337 19.2051 98.1815 19.1795 98 19.1538C97.8185 19.1282 97.6111 19.1154 97.3778 19.1154C96.5093 19.1154 95.7833 19.3846 95.2259 19.9231C94.6685 20.4615 94.3833 21.1667 94.3833 22.0128V23.141H93.0222V24.6923H94.3833V31.2179H96.3278V24.6923H99.1926Z" fill="white"/>
<path d="M51.0352 19.9487V31.2179H49.0519V22.3846H49.0259L45.4871 31.2179H44.1648L40.5482 22.3846H40.5222V31.2179H38.6945V19.9487H41.5333L44.813 28.3077H44.8519L48.313 19.9487H51.0352Z" fill="white"/>
<path d="M19.9889 8.79487H9.21667V19.4487H19.9889V8.79487Z" fill="#F25022"/>
<path d="M31.8889 8.79487H21.1167V19.4487H31.8889V8.79487Z" fill="#7FBA00"/>
<path d="M19.9889 20.5641H9.21667V31.218H19.9889V20.5641Z" fill="#00A4EF"/>
<path d="M31.8889 20.5641H21.1167V31.218H31.8889V20.5641Z" fill="#FFB900"/>
<path d="M43.0629 13.2308L43.9444 13.4487C43.7629 14.1667 43.4259 14.718 42.9463 15.0897C42.4666 15.4615 41.8703 15.6538 41.1833 15.6538C40.4574 15.6538 39.874 15.5128 39.4203 15.218C38.9666 14.9231 38.6296 14.5128 38.3963 13.9615C38.1629 13.4103 38.0463 12.8205 38.0463 12.1923C38.0463 11.5 38.1759 10.9103 38.4481 10.3974C38.7203 9.88462 39.0963 9.5 39.5889 9.23077C40.0814 8.96154 40.6259 8.83334 41.2092 8.83334C41.8833 8.83334 42.4407 9 42.8944 9.33334C43.3481 9.66667 43.6722 10.141 43.8407 10.7564L42.9722 10.9615C42.8166 10.4872 42.5963 10.1282 42.2981 9.91026C42 9.69231 41.637 9.57692 41.1833 9.57692C40.6648 9.57692 40.237 9.69231 39.9 9.9359C39.55 10.1795 39.3166 10.5 39.174 10.9103C39.0315 11.3205 38.9666 11.7436 38.9666 12.1795C38.9666 12.7436 39.0444 13.2308 39.2129 13.6538C39.3814 14.0769 39.6407 14.3846 39.9907 14.5897C40.3407 14.7949 40.7166 14.8974 41.1314 14.8974C41.624 14.8974 42.0518 14.7564 42.3889 14.4744C42.7259 14.1923 42.9463 13.7821 43.0629 13.2308Z" fill="white"/>
<path d="M44.6313 13.1538C44.6313 12.2692 44.8776 11.6154 45.3832 11.1795C45.798 10.8205 46.3036 10.6538 46.8999 10.6538C47.561 10.6538 48.1054 10.8718 48.5332 11.2949C48.961 11.7308 49.1684 12.3205 49.1684 13.0769C49.1684 13.6923 49.0776 14.1795 48.8832 14.5256C48.6888 14.8718 48.4295 15.1539 48.0665 15.3462C47.7036 15.5385 47.3147 15.641 46.8999 15.641C46.2258 15.641 45.6684 15.4231 45.2536 15C44.8388 14.5769 44.6313 13.9615 44.6313 13.1538ZM45.4739 13.1538C45.4739 13.7692 45.6036 14.2308 45.8758 14.5256C46.148 14.8205 46.4851 14.9872 46.8999 14.9872C47.3017 14.9872 47.6517 14.8333 47.911 14.5256C48.1832 14.218 48.3128 13.7564 48.3128 13.1282C48.3128 12.5385 48.1832 12.0897 47.911 11.7821C47.6388 11.4744 47.3017 11.3205 46.8999 11.3205C46.4851 11.3205 46.148 11.4744 45.8758 11.7821C45.6036 12.0769 45.4739 12.5385 45.4739 13.1538Z" fill="white"/>
<path d="M50.1147 15.5385V10.7564H50.8536V11.4359C51.2036 10.9103 51.7222 10.641 52.3962 10.641C52.6814 10.641 52.9536 10.6923 53.1999 10.7949C53.4462 10.8974 53.6277 11.0385 53.7444 11.2051C53.861 11.3718 53.9518 11.5769 54.0036 11.8077C54.0296 11.9615 54.0555 12.2179 54.0555 12.6026V15.5513H53.2388V12.6282C53.2388 12.2949 53.2129 12.0513 53.1481 11.8846C53.0833 11.7179 52.9666 11.5897 52.811 11.4872C52.6425 11.3846 52.461 11.3461 52.2407 11.3461C51.8907 11.3461 51.5925 11.4615 51.3333 11.6795C51.074 11.8974 50.9573 12.3205 50.9573 12.9231V15.5385H50.1147Z" fill="white"/>
<path d="M54.9889 14.1154L55.8056 13.9872C55.8574 14.3077 55.9741 14.5513 56.1815 14.7308C56.3889 14.8974 56.6741 14.9872 57.05 14.9872C57.4259 14.9872 57.7111 14.9103 57.8926 14.7564C58.0741 14.6026 58.1648 14.4231 58.1648 14.2179C58.1648 14.0385 58.087 13.8846 57.9185 13.782C57.8018 13.7051 57.5296 13.6154 57.0759 13.5128C56.4796 13.359 56.0519 13.2308 55.8185 13.1282C55.5852 13.0256 55.4037 12.8718 55.287 12.6667C55.1704 12.4744 55.1056 12.2564 55.1056 12.0256C55.1056 11.8077 55.1574 11.6154 55.2482 11.4359C55.3519 11.2564 55.4815 11.1026 55.65 10.9872C55.7796 10.8974 55.9481 10.8205 56.1685 10.7564C56.3889 10.6923 56.6481 10.641 56.9074 10.641C57.2833 10.641 57.6204 10.6923 57.9056 10.8077C58.1907 10.9103 58.3981 11.0641 58.5407 11.2436C58.6833 11.4231 58.7741 11.6795 58.8259 11.9872L58.0222 12.0897C57.9833 11.8462 57.8796 11.6538 57.7111 11.5128C57.5426 11.3718 57.2833 11.3077 56.9722 11.3077C56.5963 11.3077 56.3241 11.3718 56.1685 11.4872C56.013 11.6026 55.9222 11.7564 55.9222 11.9231C55.9222 12.0256 55.9611 12.1282 56.0259 12.2051C56.0907 12.2949 56.1944 12.359 56.337 12.4231C56.4148 12.4487 56.6611 12.5256 57.063 12.6282C57.6463 12.782 58.0481 12.9103 58.2815 13C58.5148 13.1026 58.6963 13.2436 58.8259 13.4231C58.9556 13.6154 59.0204 13.8461 59.0204 14.1154C59.0204 14.3846 58.9426 14.641 58.787 14.8846C58.6315 15.1282 58.3981 15.3077 58.1 15.4359C57.8019 15.5641 57.4648 15.6282 57.0759 15.6282C56.4407 15.6282 55.9741 15.5 55.637 15.2436C55.287 15 55.0796 14.6154 54.9889 14.1154Z" fill="white"/>
<path d="M60.226 10.1538L60.8352 8.89744H61.9111L60.913 10.1538H60.226ZM60.2648 15.5385V10.7564H61.0815V15.5385H60.2648Z" fill="white"/>
<path d="M62.4167 15.9359L63.2204 16.0513C63.2593 16.2949 63.35 16.4744 63.4926 16.5769C63.7 16.7308 63.9722 16.8077 64.3222 16.8077C64.6982 16.8077 64.9963 16.7308 65.2037 16.5769C65.4111 16.4231 65.5537 16.218 65.6185 15.9487C65.6574 15.7821 65.6833 15.4359 65.6833 14.9103C65.3204 15.3333 64.8796 15.5385 64.3482 15.5385C63.687 15.5385 63.1685 15.2949 62.8056 14.8205C62.4426 14.3462 62.2611 13.7821 62.2611 13.1154C62.2611 12.6539 62.3389 12.2436 62.5074 11.8462C62.6759 11.4615 62.9222 11.1667 63.2333 10.9487C63.5444 10.7436 63.9204 10.6282 64.3482 10.6282C64.9185 10.6282 65.3852 10.859 65.7611 11.3077V10.7308H66.513V14.8718C66.513 15.6154 66.4352 16.141 66.2796 16.4615C66.1241 16.7692 65.8778 17.0128 65.5537 17.1923C65.2296 17.3718 64.8148 17.4615 64.3222 17.4615C63.7389 17.4615 63.2722 17.3333 62.9222 17.0769C62.5852 16.8462 62.4037 16.4487 62.4167 15.9359ZM63.1037 13.0641C63.1037 13.6923 63.2333 14.1538 63.4796 14.4359C63.7259 14.718 64.05 14.8718 64.4259 14.8718C64.8019 14.8718 65.113 14.7308 65.3722 14.4359C65.6315 14.141 65.7611 13.7051 65.7611 13.0897C65.7611 12.5 65.6315 12.0641 65.3722 11.7692C65.113 11.4744 64.7889 11.3205 64.4259 11.3205C64.063 11.3205 63.7519 11.4615 63.4926 11.7564C63.2333 12.0513 63.1037 12.4872 63.1037 13.0641Z" fill="white"/>
<path d="M70.9333 15.5385V14.8333C70.5574 15.3718 70.0389 15.641 69.4037 15.641C69.1185 15.641 68.8463 15.5898 68.6 15.4744C68.3537 15.359 68.1722 15.2308 68.0426 15.0641C67.9259 14.8974 67.8352 14.7051 67.7833 14.4615C67.7444 14.3077 67.7314 14.0513 67.7314 13.7051V10.7564H68.5481V13.4103C68.5481 13.8333 68.5611 14.1154 68.6 14.2692C68.6518 14.4872 68.7555 14.6539 68.924 14.7692C69.0926 14.8846 69.3 14.9487 69.5463 14.9487C69.7926 14.9487 70.0259 14.8846 70.2333 14.7564C70.4537 14.6282 70.5963 14.4615 70.687 14.2436C70.7777 14.0257 70.8166 13.718 70.8166 13.3077V10.7436H71.6333V15.5257H70.9333V15.5385Z" fill="white"/>
<path d="M76.261 14L77.1036 14.1026C76.974 14.5897 76.7277 14.9744 76.3647 15.2436C76.0018 15.5128 75.5351 15.6539 74.9777 15.6539C74.2647 15.6539 73.7073 15.4359 73.2925 15.0128C72.8777 14.5769 72.6703 13.9744 72.6703 13.2051C72.6703 12.3974 72.8777 11.7692 73.3055 11.3333C73.7203 10.8846 74.2647 10.6667 74.9388 10.6667C75.587 10.6667 76.1184 10.8846 76.5203 11.3205C76.9351 11.7564 77.1295 12.3718 77.1295 13.1538C77.1295 13.2051 77.1295 13.2692 77.1295 13.3718H73.5258C73.5518 13.8974 73.7073 14.2949 73.9796 14.5769C74.2518 14.859 74.5888 15 74.9907 15C75.2888 15 75.5481 14.9231 75.7555 14.7692C75.9758 14.5897 76.1444 14.3462 76.261 14ZM73.5647 12.6923H76.261C76.2221 12.2949 76.1184 11.9872 75.9499 11.7821C75.6907 11.4744 75.3536 11.3077 74.9388 11.3077C74.5629 11.3077 74.2518 11.4359 73.9925 11.6795C73.7333 11.9231 73.6036 12.2692 73.5647 12.6923Z" fill="white"/>
<path d="M78.1278 15.5385V8.93591H78.9445V15.5385H78.1278Z" fill="white"/>
<path d="M79.9037 13.1538C79.9037 12.2692 80.15 11.6154 80.6555 11.1795C81.0704 10.8205 81.5759 10.6538 82.1722 10.6538C82.8333 10.6538 83.3778 10.8718 83.8055 11.2949C84.2333 11.7308 84.4407 12.3205 84.4407 13.0769C84.4407 13.6923 84.35 14.1795 84.1555 14.5256C83.9611 14.8718 83.7018 15.1539 83.3389 15.3462C82.9759 15.5385 82.587 15.641 82.1722 15.641C81.4981 15.641 80.9407 15.4231 80.5259 15C80.1241 14.5769 79.9037 13.9615 79.9037 13.1538ZM80.7592 13.1538C80.7592 13.7692 80.8889 14.2308 81.1611 14.5256C81.4333 14.8205 81.7704 14.9872 82.1852 14.9872C82.587 14.9872 82.937 14.8333 83.1963 14.5256C83.4685 14.218 83.5981 13.7564 83.5981 13.1282C83.5981 12.5385 83.4685 12.0897 83.1963 11.7821C82.9241 11.4744 82.587 11.3205 82.1852 11.3205C81.7704 11.3205 81.4333 11.4744 81.1611 11.7821C80.8889 12.0769 80.7592 12.5385 80.7592 13.1538Z" fill="white"/>
<path d="M91.1426 15.5385V14.9359C90.8315 15.4103 90.3907 15.6539 89.7944 15.6539C89.4056 15.6539 89.0556 15.5513 88.7315 15.3333C88.4074 15.1282 88.1611 14.8333 87.9796 14.4487C87.7981 14.0641 87.7074 13.641 87.7074 13.1539C87.7074 12.6795 87.7852 12.2436 87.9537 11.859C88.1093 11.4744 88.3555 11.1667 88.6796 10.9615C89.0037 10.7564 89.3667 10.6539 89.7556 10.6539C90.0407 10.6539 90.313 10.718 90.5333 10.8333C90.7667 10.9487 90.9482 11.1154 91.0907 11.3077V8.93591H91.9074V15.5385H91.1426ZM88.55 13.1539C88.55 13.7692 88.6796 14.2308 88.9389 14.5257C89.1981 14.8205 89.5093 14.9744 89.8593 14.9744C90.2222 14.9744 90.5204 14.8333 90.7667 14.5385C91.013 14.2436 91.1426 13.8077 91.1426 13.2051C91.1426 12.5513 91.013 12.0641 90.7537 11.7692C90.4944 11.4615 90.1833 11.3077 89.8074 11.3077C89.4444 11.3077 89.1333 11.4487 88.9 11.7436C88.6667 12.0513 88.55 12.5128 88.55 13.1539Z" fill="white"/>
<path d="M96.4963 14L97.3389 14.1026C97.2092 14.5897 96.9629 14.9744 96.6 15.2436C96.237 15.5128 95.7703 15.6539 95.2129 15.6539C94.5 15.6539 93.9426 15.4359 93.5277 15.0128C93.1129 14.5769 92.9055 13.9744 92.9055 13.2051C92.9055 12.3974 93.1129 11.7692 93.5407 11.3333C93.9555 10.8846 94.5 10.6667 95.174 10.6667C95.8222 10.6667 96.3537 10.8846 96.7555 11.3205C97.1703 11.7564 97.3648 12.3718 97.3648 13.1538C97.3648 13.2051 97.3648 13.2692 97.3648 13.3718H93.7611C93.787 13.8974 93.9426 14.2949 94.2148 14.5769C94.487 14.859 94.824 15 95.2259 15C95.524 15 95.7833 14.9231 95.9907 14.7692C96.2111 14.5897 96.3796 14.3462 96.4963 14ZM93.8129 12.6923H96.5092C96.4703 12.2949 96.3666 11.9872 96.1981 11.7821C95.9388 11.4744 95.6018 11.3077 95.187 11.3077C94.8111 11.3077 94.5 11.4359 94.2407 11.6795C93.9814 11.9231 93.8389 12.2692 93.8129 12.6923Z" fill="white"/>
</svg>
