<svg width="26" height="26" viewBox="0 0 26 26" fill="none" xmlns="http://www.w3.org/2000/svg">
<path d="M21.6665 7.58331H4.33317C3.13655 7.58331 2.1665 8.55336 2.1665 9.74998V20.5833C2.1665 21.7799 3.13655 22.75 4.33317 22.75H21.6665C22.8631 22.75 23.8332 21.7799 23.8332 20.5833V9.74998C23.8332 8.55336 22.8631 7.58331 21.6665 7.58331Z" stroke="#1E1D1D" stroke-opacity="0.4" stroke-width="2" stroke-linecap="round" stroke-linejoin="round"/>
<path d="M17.3332 22.75V5.41667C17.3332 4.84203 17.1049 4.29093 16.6986 3.8846C16.2922 3.47827 15.7411 3.25 15.1665 3.25H10.8332C10.2585 3.25 9.70744 3.47827 9.30111 3.8846C8.89478 4.29093 8.6665 4.84203 8.6665 5.41667V22.75" stroke="#1E1D1D" stroke-opacity="0.4" stroke-width="2" stroke-linecap="round" stroke-linejoin="round"/>
</svg>
