<svg width="155" height="60" viewBox="0 0 155 60" fill="none" xmlns="http://www.w3.org/2000/svg">
<path d="M140 50H15C12.2 50 10 47.8 10 45V15C10 12.2 12.2 10 15 10H140C142.8 10 145 12.2 145 15V45C145 47.7 142.8 50 140 50Z" fill="black"/>
<path d="M140 10.8C142.3 10.8 144.2 12.7 144.2 15V45C144.2 47.3 142.3 49.2 140 49.2H15C12.7 49.2 10.8 47.3 10.8 45V15C10.8 12.7 12.7 10.8 15 10.8H140ZM140 10H15C12.2 10 10 12.2 10 15V45C10 47.8 12.2 50 15 50H140C142.8 50 145 47.8 145 45V15C145 12.3 142.8 10 140 10Z" fill="#A6A6A6"/>
<path d="M78.1 31.8C75.7 31.8 73.8 33.6 73.8 36.1C73.8 38.5 75.7 40.4 78.1 40.4C80.5 40.4 82.4 38.6 82.4 36.1C82.4 33.5 80.5 31.8 78.1 31.8ZM78.1 38.6C76.8 38.6 75.7 37.5 75.7 36C75.7 34.5 76.8 33.4 78.1 33.4C79.4 33.4 80.5 34.4 80.5 36C80.5 37.5 79.4 38.6 78.1 38.6ZM68.8 31.8C66.4 31.8 64.5 33.6 64.5 36.1C64.5 38.5 66.4 40.4 68.8 40.4C71.2 40.4 73.1 38.6 73.1 36.1C73.1 33.5 71.2 31.8 68.8 31.8ZM68.8 38.6C67.5 38.6 66.4 37.5 66.4 36C66.4 34.5 67.5 33.4 68.8 33.4C70.1 33.4 71.2 34.4 71.2 36C71.2 37.5 70.1 38.6 68.8 38.6ZM57.7 33.1V34.9H62C61.9 35.9 61.5 36.7 61 37.2C60.4 37.8 59.4 38.5 57.7 38.5C55 38.5 53 36.4 53 33.7C53 31 55.1 28.9 57.7 28.9C59.1 28.9 60.2 29.5 61 30.2L62.3 28.9C61.2 27.9 59.8 27.1 57.8 27.1C54.2 27.1 51.1 30.1 51.1 33.7C51.1 37.3 54.2 40.3 57.8 40.3C59.8 40.3 61.2 39.7 62.4 38.4C63.6 37.2 64 35.5 64 34.2C64 33.8 64 33.4 63.9 33.1H57.7ZM103.1 34.5C102.7 33.5 101.7 31.8 99.5 31.8C97.3 31.8 95.5 33.5 95.5 36.1C95.5 38.5 97.3 40.4 99.7 40.4C101.6 40.4 102.8 39.2 103.2 38.5L101.8 37.5C101.3 38.2 100.7 38.7 99.7 38.7C98.7 38.7 98.1 38.3 97.6 37.4L103.3 35L103.1 34.5ZM97.3 35.9C97.3 34.3 98.6 33.4 99.5 33.4C100.2 33.4 100.9 33.8 101.1 34.3L97.3 35.9ZM92.6 40H94.5V27.5H92.6V40ZM89.6 32.7C89.1 32.2 88.3 31.7 87.3 31.7C85.2 31.7 83.2 33.6 83.2 36C83.2 38.4 85.1 40.2 87.3 40.2C88.3 40.2 89.1 39.7 89.5 39.2H89.6V39.8C89.6 41.4 88.7 42.3 87.3 42.3C86.2 42.3 85.4 41.5 85.2 40.8L83.6 41.5C84.1 42.6 85.3 44 87.4 44C89.6 44 91.4 42.7 91.4 39.6V32H89.6V32.7ZM87.4 38.6C86.1 38.6 85 37.5 85 36C85 34.5 86.1 33.4 87.4 33.4C88.7 33.4 89.7 34.5 89.7 36C89.7 37.5 88.7 38.6 87.4 38.6ZM111.8 27.5H107.3V40H109.2V35.3H111.8C113.9 35.3 115.9 33.8 115.9 31.4C115.9 29 113.9 27.5 111.8 27.5ZM111.9 33.5H109.2V29.2H111.9C113.3 29.2 114.1 30.4 114.1 31.3C114 32.4 113.2 33.5 111.9 33.5ZM123.4 31.7C122 31.7 120.6 32.3 120.1 33.6L121.8 34.3C122.2 33.6 122.8 33.4 123.5 33.4C124.5 33.4 125.4 34 125.5 35V35.1C125.2 34.9 124.4 34.6 123.6 34.6C121.8 34.6 120 35.6 120 37.4C120 39.1 121.5 40.2 123.1 40.2C124.4 40.2 125 39.6 125.5 39H125.6V40H127.4V35.2C127.2 33 125.5 31.7 123.4 31.7ZM123.2 38.6C122.6 38.6 121.7 38.3 121.7 37.5C121.7 36.5 122.8 36.2 123.7 36.2C124.5 36.2 124.9 36.4 125.4 36.6C125.2 37.8 124.2 38.6 123.2 38.6ZM133.7 32L131.6 37.4H131.5L129.3 32H127.3L130.6 39.6L128.7 43.8H130.6L135.7 32H133.7ZM116.9 40H118.8V27.5H116.9V40Z" fill="white"/>
<path d="M20.4 17.5C20.1 17.8 19.9 18.3 19.9 18.9V41C19.9 41.6 20.1 42.1 20.4 42.4L20.5 42.5L32.9 30.1V30V29.9L20.4 17.5Z" fill="url(#paint0_linear)"/>
<path d="M37 34.3L32.9 30.2V30V29.9L37 25.8L37.1 25.9L42 28.7C43.4 29.5 43.4 30.8 42 31.6L37 34.3Z" fill="url(#paint1_linear)"/>
<path d="M37.1 34.2L32.9 30L20.4 42.5C20.9 43 21.6 43 22.5 42.6L37.1 34.2Z" fill="url(#paint2_linear)"/>
<path d="M37.1 25.8L22.5 17.5C21.6 17 20.9 17.1 20.4 17.6L32.9 30L37.1 25.8Z" fill="url(#paint3_linear)"/>
<path opacity="0.2" d="M37 34.1L22.5 42.3C21.7 42.8 21 42.7 20.5 42.3L20.4 42.4L20.5 42.5C21 42.9 21.7 43 22.5 42.5L37 34.1Z" fill="black"/>
<path opacity="0.12" d="M20.4 42.3C20.1 42 20 41.5 20 40.9V41C20 41.6 20.2 42.1 20.5 42.4V42.3H20.4Z" fill="black"/>
<path opacity="0.12" d="M42 31.3L37 34.1L37.1 34.2L42 31.4C42.7 31 43 30.5 43 30C43 30.5 42.6 30.9 42 31.3Z" fill="black"/>
<path opacity="0.25" d="M22.5 17.6L42 28.7C42.6 29.1 43 29.5 43 30C43 29.5 42.7 29 42 28.6L22.5 17.5C21.1 16.7 20 17.4 20 19V19.1C20 17.5 21.1 16.8 22.5 17.6Z" fill="white"/>
<path d="M51.3 23V17H53.1C54 17 54.8 17.3 55.3 17.8C55.9 18.4 56.1 19.1 56.1 20C56.1 20.9 55.8 21.6 55.3 22.2C54.8 22.7 54 23 53.1 23H51.3ZM52.1 22.3H53.2001C53.9001 22.3 54.4 22.1 54.8 21.7C55.2 21.3 55.4001 20.7 55.4001 20C55.4001 19.3 55.2 18.7 54.8 18.3C54.4 17.9 53.8001 17.7 53.2001 17.7H52.1V22.3Z" fill="white" stroke="white" stroke-width="0.2" stroke-miterlimit="10"/>
<path d="M57.2001 23V17H58.0001V23H57.2001Z" fill="white" stroke="white" stroke-width="0.2" stroke-miterlimit="10"/>
<path d="M61.1 23.1C60.7 23.1 60.2 23 59.8 22.7C59.4 22.4 59.1 22 59 21.5L59.7 21.2C59.8 21.5 60 21.8 60.2 22C60.5 22.2 60.8 22.3 61.1 22.3C61.4 22.3 61.7 22.2 62 22C62.2 21.8 62.4 21.6 62.4 21.3C62.4 21 62.3 20.7 62 20.5C61.8 20.3 61.4 20.1 60.9 20C60.4 19.8 60 19.6 59.7 19.4C59.4 19.1 59.3 18.8 59.3 18.4C59.3 18 59.5 17.6 59.8 17.3C60.1 17 60.6 16.8 61.1 16.8C61.6 16.8 62 16.9 62.3 17.2C62.6 17.5 62.8 17.7 62.9 18L62.2 18.3C62.1 18.1 62 17.9 61.8 17.8C61.6 17.6 61.3 17.6 61 17.6C60.7 17.6 60.5 17.7 60.2 17.8C60.1 18 60 18.2 60 18.5C60 18.7 60.1 18.9 60.3 19.1C60.5 19.3 60.8 19.4 61.2 19.5C61.5 19.6 61.7 19.7 61.9 19.8C62.1 19.9 62.3 20 62.5 20.2C62.7 20.3 62.9 20.5 63 20.8C63.1 21 63.2 21.3 63.2 21.6C63.2 21.9 63.1 22.2 63 22.4C62.9 22.6 62.7 22.8 62.5 22.9C62.2 22.9 62 23 61.8 23C61.6 23.1 61.3 23.1 61.1 23.1Z" fill="white" stroke="white" stroke-width="0.2" stroke-miterlimit="10"/>
<path d="M65.0001 23H64.2001V17H66.2001C66.7001 17 67.1001 17.2 67.5001 17.5C67.9001 17.8 68.1001 18.3 68.1001 18.8C68.1001 19.3 67.9001 19.7 67.5001 20.1C67.1001 20.4 66.7001 20.6 66.2001 20.6H65.0001V23ZM65.0001 19.8H66.3001C66.6001 19.8 66.9001 19.7 67.1001 19.5C67.3001 19.3 67.4001 19 67.4001 18.8C67.4001 18.5 67.3001 18.3 67.1001 18.1C66.9001 17.9 66.6001 17.8 66.3001 17.8H65.0001V19.8Z" fill="white" stroke="white" stroke-width="0.2" stroke-miterlimit="10"/>
<path d="M74.0001 22.2C73.4001 22.8 72.7001 23.1 71.8001 23.1C70.9001 23.1 70.2001 22.8 69.6001 22.2C69.0001 21.6 68.7001 20.9 68.7001 20C68.7001 19.1 69.0001 18.4 69.6001 17.8C70.2001 17.2 70.9001 16.9 71.8001 16.9C72.7001 16.9 73.4001 17.2 74.0001 17.8C74.6001 18.4 74.9001 19.1 74.9001 20C74.9001 20.9 74.6001 21.6 74.0001 22.2ZM70.2001 21.7C70.6001 22.1 71.2001 22.4 71.8001 22.4C72.4001 22.4 73.0001 22.2 73.4001 21.7C73.8001 21.3 74.1001 20.7 74.1001 20C74.1001 19.3 73.9001 18.7 73.4001 18.3C73.0001 17.9 72.4001 17.6 71.8001 17.6C71.2001 17.6 70.6001 17.8 70.2001 18.3C69.8001 18.7 69.5001 19.3 69.5001 20C69.5001 20.7 69.7001 21.3 70.2001 21.7Z" fill="white" stroke="white" stroke-width="0.2" stroke-miterlimit="10"/>
<path d="M76 23V17H76.9L79.8 21.7V20.5V17H80.6V23H79.8L76.7 18.1V19.3V23H76Z" fill="white" stroke="white" stroke-width="0.2" stroke-miterlimit="10"/>
<path d="M82 23V17H82.8V23H82Z" fill="white" stroke="white" stroke-width="0.2" stroke-miterlimit="10"/>
<path d="M84.1001 23V17H86.3001C86.8001 17 87.2001 17.2 87.5001 17.5C87.8001 17.8 88.0001 18.2 88.0001 18.7C88.0001 19 87.9001 19.2 87.8001 19.5C87.7001 19.7 87.5001 19.9 87.2001 20C87.5001 20.1 87.7001 20.3 87.9001 20.5C88.1001 20.7 88.2001 21 88.2001 21.4C88.2001 21.9 88.0001 22.3 87.7001 22.6C87.3001 22.9 86.9001 23.1 86.4001 23.1H84.1001V23ZM84.9001 19.6H86.3001C86.6001 19.6 86.8001 19.5 87.0001 19.3C87.2001 19.1 87.3001 18.9 87.3001 18.7C87.3001 18.5 87.1001 18.2 87.0001 18C86.8001 17.8 86.6001 17.7 86.3001 17.7H84.9001V19.6ZM84.9001 22.3H86.5001C86.8001 22.3 87.0001 22.2 87.2001 22C87.4001 21.8 87.5001 21.6 87.5001 21.3C87.5001 21.1 87.4001 20.8 87.2001 20.6C87.0001 20.4 86.8001 20.3 86.5001 20.3H85.0001V22.3H84.9001Z" fill="white" stroke="white" stroke-width="0.2" stroke-miterlimit="10"/>
<path d="M89.2001 23V17H90.0001V22.3H92.6001V23H89.2001Z" fill="white" stroke="white" stroke-width="0.2" stroke-miterlimit="10"/>
<path d="M97.1001 17.7H94.4001V19.6H96.9001V20.3H94.4001V22.2H97.1001V23H93.6001V17H97.1001V17.7Z" fill="white" stroke="white" stroke-width="0.2" stroke-miterlimit="10"/>
<path d="M103.8 17.7H101.1V19.6H103.6V20.3H101.1V22.2H103.8V23H100.3V17H103.8V17.7Z" fill="white" stroke="white" stroke-width="0.2" stroke-miterlimit="10"/>
<path d="M105 23V17H105.9L108.8 21.7V20.5V17H109.6V23H108.8L105.7 18.1V19.3V23H105Z" fill="white" stroke="white" stroke-width="0.2" stroke-miterlimit="10"/>
<defs>
<linearGradient id="paint0_linear" x1="31.7997" y1="18.7097" x2="15.0173" y2="35.4921" gradientUnits="userSpaceOnUse">
<stop stop-color="#00A0FF"/>
<stop offset="0.00657445" stop-color="#00A1FF"/>
<stop offset="0.2601" stop-color="#00BEFF"/>
<stop offset="0.5122" stop-color="#00D2FF"/>
<stop offset="0.7604" stop-color="#00DFFF"/>
<stop offset="1" stop-color="#00E3FF"/>
</linearGradient>
<linearGradient id="paint1_linear" x1="43.8344" y1="30.0014" x2="19.6375" y2="30.0014" gradientUnits="userSpaceOnUse">
<stop stop-color="#FFE000"/>
<stop offset="0.4087" stop-color="#FFBD00"/>
<stop offset="0.7754" stop-color="#FFA500"/>
<stop offset="1" stop-color="#FF9C00"/>
</linearGradient>
<linearGradient id="paint2_linear" x1="34.827" y1="32.2961" x2="12.0687" y2="55.0544" gradientUnits="userSpaceOnUse">
<stop stop-color="#FF3A44"/>
<stop offset="1" stop-color="#C31162"/>
</linearGradient>
<linearGradient id="paint3_linear" x1="17.2973" y1="10.1762" x2="27.4599" y2="20.3387" gradientUnits="userSpaceOnUse">
<stop stop-color="#32A071"/>
<stop offset="0.0685" stop-color="#2DA771"/>
<stop offset="0.4762" stop-color="#15CF74"/>
<stop offset="0.8009" stop-color="#06E775"/>
<stop offset="1" stop-color="#00F076"/>
</linearGradient>
</defs>
</svg>
