<svg width="200" height="31" viewBox="0 0 200 31" fill="none" xmlns="http://www.w3.org/2000/svg">
<path d="M31.8437 22.7372H24.8428V21.5568H25.4306C26.4666 21.5568 26.9436 21.4508 27.0447 21.3496C27.1459 21.2484 27.1748 21.0846 27.1989 20.2414V13.3947C27.17 11.8239 27.0255 11.6794 25.4547 11.6794H24.8428V10.5037H25.4595L26.1919 10.4748L27.2375 10.4218C27.998 10.3754 28.7555 10.2885 29.5069 10.1617H29.6129V20.1595C29.6129 21.4074 29.6803 21.417 30.0947 21.4797C30.5164 21.5351 30.9414 21.5608 31.3667 21.5568H31.8485L31.8437 22.7372ZM28.2108 7.03944C27.872 7.04229 27.5401 6.94419 27.2573 6.75766C26.9745 6.57112 26.7536 6.3046 26.6229 5.99207C26.4921 5.67954 26.4574 5.33515 26.5232 5.00281C26.5889 4.67048 26.7522 4.36525 26.992 4.12604C27.2319 3.88684 27.5376 3.72448 27.8702 3.65968C28.2027 3.59488 28.547 3.63057 28.8591 3.7622C29.1713 3.89383 29.4372 4.11543 29.6229 4.39876C29.8086 4.68208 29.9058 5.0143 29.902 5.35306C29.9039 5.57546 29.8614 5.79602 29.7771 6.00181C29.6927 6.2076 29.5681 6.39449 29.4106 6.55154C29.2531 6.70858 29.0659 6.83263 28.8599 6.9164C28.6538 7.00018 28.4332 7.04201 28.2108 7.03944ZM43.7255 23.089V23.0022C43.569 22.2299 43.4899 21.4438 43.4894 20.6558C43.1231 21.541 42.4342 22.254 41.5621 22.6505C40.9161 22.9377 40.2164 23.0839 39.5095 23.0793C36.5126 23.0793 34.2528 20.4823 34.2528 17.0373C34.2528 13.2453 36.8017 10.1617 39.9287 10.1617C41.4994 10.1617 42.5643 10.7928 43.4556 12.2576V6.4757C43.4556 4.9676 43.2485 4.81341 41.5283 4.81341H40.849V3.63295H41.4368C41.6151 3.63295 42.1451 3.63295 43.1569 3.53176C44.1687 3.43058 44.8096 3.40167 45.0987 3.37276C45.3253 3.36591 45.5509 3.34013 45.7732 3.29567H45.8792V19.8704C45.8792 21.3833 46.0816 21.5568 47.8065 21.5568H48.2353V22.7372H47.5993C47.116 22.7476 46.6335 22.783 46.1539 22.8432L45.0167 22.9396L44.5687 22.9733L44.3422 23.0022L43.7977 23.0793L43.7255 23.089ZM40.3093 11.6553C38.3146 11.6553 37.0715 13.626 37.0715 16.8012C37.0715 19.9764 38.117 21.5857 40.0973 21.5857C42.227 21.5857 43.4701 19.7355 43.4701 16.5169C43.4701 13.4718 42.2993 11.6553 40.3334 11.6553H40.3093ZM60.9314 23.089V20.6028C60.6237 21.1111 60.2457 21.5733 59.8087 21.976C58.9524 22.7082 57.8563 23.0993 56.7299 23.0745C55.029 23.0745 53.6558 22.3277 53.0584 21.0846C52.5476 20.039 52.4465 19.3259 52.4465 16.8494V13.3706C52.4176 11.8384 52.2248 11.6794 50.3843 11.6794H49.9554V10.5037H50.8854C52.1782 10.5144 53.4691 10.3998 54.7399 10.1617H54.8459V16.9072C54.8459 19.0127 54.9279 19.5283 55.3567 20.1547C55.5794 20.4953 55.8885 20.7707 56.2525 20.9527C56.6166 21.1347 57.0224 21.2168 57.4285 21.1906C59.722 21.1906 60.9314 19.4657 60.9314 16.1989V13.3706C60.9314 11.8384 60.7146 11.6794 58.874 11.6794H58.3006V10.5037H58.9414C60.3769 10.487 61.8097 10.3727 63.2297 10.1617H63.3309V19.8704C63.3309 21.3833 63.5139 21.5568 65.0751 21.5568H65.5569V22.7372H64.81L63.061 22.8432L60.9314 23.089ZM74.0611 27.6615H67.1951V26.5003H67.6528C68.6791 26.5003 69.1657 26.3991 69.2717 26.3124C69.3777 26.2256 69.4211 26.004 69.4211 25.1223V13.3417C69.4211 11.848 69.2428 11.6794 67.6769 11.6794H67.1951V10.5037H67.7058L68.0624 10.4748L69.4066 10.4218C70.1072 10.4025 70.8043 10.3154 71.4881 10.1617H71.5989V10.6435C71.5989 10.8266 71.5989 11.0048 71.623 11.2409C71.623 11.3758 71.623 11.5252 71.6519 11.7228V12.1468C71.6567 12.2366 71.6567 12.3267 71.6519 12.4166C71.8844 11.9211 72.2433 11.4956 72.6927 11.1831C73.547 10.538 74.5854 10.1834 75.6559 10.1713C78.6769 10.1713 81.0475 12.7635 81.0475 16.0784C81.0475 18.4346 80.5898 19.933 79.4767 21.2195C78.9782 21.8012 78.3606 22.2691 77.6657 22.5916C76.9708 22.9141 76.2148 23.0837 75.4487 23.089C74.7276 23.117 74.0123 22.9501 73.378 22.6059C72.7437 22.2616 72.214 21.7527 71.8447 21.1328V25.1174C71.8447 26.3654 71.9169 26.375 72.3265 26.4184C72.7483 26.4719 73.1733 26.4977 73.5985 26.4955H74.0803L74.0611 27.6615ZM75.256 11.6553C73.0155 11.6553 71.729 13.4525 71.729 16.594C71.729 19.7355 73.0155 21.5857 75.1644 21.5857C75.6276 21.5869 76.0842 21.4767 76.4959 21.2646C76.9076 21.0525 77.2623 20.7445 77.5302 20.3667C78.1084 19.4994 78.3541 18.3237 78.3541 16.435C78.356 15.7734 78.3045 15.1128 78.1999 14.4595C77.8916 12.7828 76.7063 11.6553 75.2463 11.6553H75.256ZM90.5828 22.7372H83.2109V21.5568H83.7987C84.8298 21.5568 85.3116 21.4508 85.4128 21.3496C85.514 21.2484 85.567 21.0942 85.567 20.1595V13.3706C85.5429 11.8384 85.3791 11.6794 83.8276 11.6794H83.2109V10.5037H83.8372C85.0538 10.4862 86.267 10.3718 87.4654 10.1617H87.5762V10.2773C87.5762 10.4797 87.5762 10.6338 87.5473 10.7591C87.5184 10.8844 87.5473 11.0434 87.5473 11.159V11.2939L87.5955 12.6768V14.5414C88.4483 11.7228 90.0046 10.205 92.0427 10.205C93.6568 10.205 94.7843 11.1687 94.7843 12.5226C94.8004 12.7801 94.7628 13.0381 94.6738 13.2802C94.5848 13.5224 94.4464 13.7434 94.2674 13.9292C94.0885 14.115 93.8728 14.2615 93.6341 14.3594C93.3954 14.4574 93.139 14.5046 92.8811 14.4981C91.8933 14.4981 91.0839 13.8235 91.0839 12.9948C91.098 12.6634 91.2255 12.347 91.4452 12.0986C91.6524 11.8673 91.6621 11.8288 91.6621 11.7902C91.6621 11.7517 91.6621 11.6987 91.5416 11.6987C91.0073 11.8071 90.5242 12.0902 90.1684 12.5033C89.3867 13.4188 88.8042 14.487 88.4579 15.64C88.2009 16.5375 88.0394 17.4597 87.9761 18.3912V20.2028C87.9761 21.446 88.0677 21.4556 88.5784 21.523C89.089 21.5758 89.6021 21.6015 90.1154 21.6001H90.5972L90.5828 22.7372ZM102.628 23.0793C99.005 23.0793 96.4755 20.5209 96.4755 16.8542C96.4755 13.1875 99.1978 10.1617 102.546 10.1617C105.813 10.1617 107.88 12.6238 108.068 16.7434V16.8638H99.2556C99.3327 20.0149 100.581 21.6098 102.966 21.6098C103.999 21.6232 104.995 21.2264 105.736 20.5064C106.258 19.9983 106.686 19.4031 107.003 18.7477L107.047 18.6658L108.097 19.2537L108.059 19.3307C107.753 19.9963 107.361 20.6184 106.892 21.1809C106.381 21.812 105.729 22.3148 104.989 22.6494C104.248 22.984 103.44 23.1411 102.628 23.1082V23.0793ZM99.2556 15.64H103.592C105.196 15.64 105.259 15.534 105.259 14.7101C105.259 12.7105 104.189 11.4192 102.542 11.4192C100.648 11.4192 99.4869 12.9177 99.2556 15.64ZM117.43 23.0793H116.38V23.0263L111.903 13.3899L111.508 12.6334C111.094 11.7998 110.916 11.7083 109.581 11.6698H109.494V10.5037H116.119V11.6746L114.674 11.7324C114.192 11.7613 114.125 11.9059 114.125 12.06C114.12 12.1646 114.135 12.2691 114.168 12.3684C114.199 12.4659 114.238 12.5609 114.284 12.6527L114.438 12.99L117.329 19.4078L119.656 13.9729L119.926 13.3706C120.04 13.1346 120.11 12.88 120.133 12.6189C120.133 12.2431 119.94 11.7276 118.302 11.6553H118.215V10.5037H123.564V11.6649H123.482C122.34 11.8143 121.863 12.3009 121.159 14.0162L117.43 23.0793ZM133.113 22.7372H126.006V21.5568H126.604C127.654 21.5568 128.141 21.4508 128.247 21.3496C128.353 21.2484 128.377 21.0846 128.401 20.2414V13.3947C128.377 11.8239 128.228 11.6794 126.628 11.6794H126.006V10.5037H126.628L127.37 10.4748L128.44 10.4218C129.213 10.3752 129.983 10.2884 130.748 10.1617H130.849V20.1595C130.849 21.4074 130.907 21.4122 131.359 21.4797C131.788 21.5349 132.219 21.5606 132.651 21.5568H133.133L133.113 22.7372ZM129.427 7.03944C129.09 7.03751 128.76 6.93535 128.48 6.74591C128.201 6.55647 127.984 6.28827 127.857 5.97532C127.73 5.66237 127.698 5.31875 127.767 4.98801C127.835 4.65728 128 4.35431 128.241 4.11753C128.482 3.88074 128.788 3.72078 129.12 3.65794C129.452 3.5951 129.795 3.63219 130.105 3.76452C130.416 3.89686 130.681 4.11847 130.865 4.40127C131.05 4.68407 131.146 5.01533 131.143 5.35306C131.143 5.57715 131.099 5.79913 131.013 6.00594C130.927 6.21274 130.8 6.40021 130.64 6.55732C130.48 6.71443 130.291 6.83801 130.082 6.92081C129.874 7.0036 129.651 7.04393 129.427 7.03944ZM142.041 23.0793C140.688 23.0793 139.685 22.7131 138.124 21.6339L137.349 22.7276H136.356V17.5769H137.368V17.6395C137.574 18.4511 137.95 19.2098 138.471 19.8656C138.89 20.4299 139.432 20.8903 140.057 21.2111C140.682 21.5319 141.373 21.7046 142.075 21.7158C143.564 21.7158 144.648 20.9159 144.648 19.8174C144.648 18.8152 143.988 18.3478 142.032 17.9672L140.726 17.7022C137.835 17.1481 136.525 15.9724 136.525 13.8958C136.525 11.8191 138.307 10.1617 140.582 10.1617C141.869 10.1613 143.126 10.5529 144.186 11.2843L144.773 10.5037H145.79V15.0088H144.759L144.735 14.951C144.451 14.1405 144.012 13.3928 143.444 12.749C143.104 12.3308 142.677 11.9922 142.193 11.7574C141.708 11.5226 141.178 11.3973 140.639 11.3903C139.406 11.3903 138.437 12.0986 138.437 13.0044C138.437 14.0403 139.31 14.6474 141.328 15.0329C143.285 15.3846 143.815 15.5484 144.629 15.9339C145.211 16.2266 145.701 16.6763 146.041 17.2323C146.382 17.7882 146.56 18.4283 146.556 19.0802C146.556 21.3592 144.605 23.0793 142.017 23.0793H142.041ZM155.412 23.0793C152.242 23.0793 149.457 20.0728 149.457 16.647C149.457 13.1297 152.208 10.1568 155.465 10.1568C158.631 10.1568 161.31 13.1056 161.31 16.594C161.31 20.0824 158.607 23.0793 155.412 23.0793ZM155.359 11.3903C153.504 11.3903 152.304 13.4621 152.304 16.6904C152.304 19.9186 153.494 21.8651 155.412 21.8651C157.33 21.8651 158.462 19.8415 158.462 16.5651C158.462 13.2887 157.272 11.3903 155.359 11.3903ZM171.312 22.7372H163.82V21.5568H164.417C165.468 21.5568 165.954 21.4508 166.06 21.3496C166.166 21.2484 166.219 21.0942 166.219 20.1595V13.3706C166.19 11.8384 166.022 11.6794 164.441 11.6794H163.82V10.5037H164.47C165.708 10.4858 166.942 10.3714 168.161 10.1617H168.272V10.2773C168.272 10.4604 168.248 10.6001 168.238 10.7206C168.229 10.841 168.238 11.0386 168.238 11.159V11.2939L168.291 12.6768V14.5462C169.154 11.7276 170.749 10.1809 172.806 10.1809C174.444 10.1809 175.586 11.1446 175.586 12.4985C175.605 12.7586 175.568 13.0197 175.478 13.2646C175.389 13.5095 175.248 13.7326 175.066 13.9193C174.884 14.106 174.665 14.2519 174.422 14.3475C174.179 14.4431 173.919 14.4862 173.659 14.474C172.657 14.474 171.837 13.7994 171.837 12.9707C171.853 12.6387 171.982 12.3222 172.204 12.0745C172.411 11.8432 172.42 11.8047 172.42 11.7661C172.42 11.7276 172.42 11.6746 172.3 11.6746C171.759 11.7825 171.268 12.0652 170.903 12.4792C170.11 13.391 169.519 14.4599 169.168 15.6159C168.91 16.5132 168.748 17.4355 168.686 18.3671V20.1788C168.686 21.4219 168.763 21.4315 169.293 21.499C169.814 21.5516 170.336 21.5773 170.859 21.576H171.341L171.312 22.7372ZM188.908 23.0793C187.463 23.0793 186.721 22.3229 186.499 20.6317C185.536 22.3903 184.191 23.0793 181.85 23.0793C179.306 23.0793 177.846 21.9567 177.846 20.0005C177.846 18.3189 179.147 16.8879 181.421 16.064C182.966 15.45 184.602 15.0951 186.263 15.0136C186.263 13.5151 186.167 12.884 185.873 12.3395C185.516 11.6842 184.861 11.3758 183.743 11.3758C182.105 11.3758 181.088 11.7228 181.088 12.2817C181.088 12.431 181.088 12.4937 181.363 12.8261C181.468 12.9391 181.55 13.0717 181.604 13.2165C181.658 13.3612 181.682 13.5151 181.676 13.6693C181.686 13.8739 181.653 14.0783 181.58 14.2697C181.507 14.461 181.395 14.6354 181.252 14.7818C181.109 14.9282 180.937 15.0436 180.747 15.1208C180.557 15.1979 180.354 15.2353 180.149 15.2304C179.927 15.2331 179.707 15.1895 179.503 15.1026C179.299 15.0157 179.115 14.8873 178.963 14.7255C178.812 14.5637 178.695 14.3722 178.621 14.163C178.548 13.9538 178.518 13.7315 178.535 13.5103C178.535 11.4963 180.77 10.1376 184.09 10.1376C185.863 10.1376 187.087 10.4797 187.829 11.1831C188.571 11.8866 188.711 12.4359 188.711 14.474V18.979C188.711 21.2099 188.865 21.4556 189.472 21.4556C189.761 21.4556 189.925 21.364 190.344 20.9738L190.407 20.9111L191.187 21.711L191.144 21.7736C190.93 22.1744 190.607 22.5065 190.212 22.7316C189.818 22.9567 189.367 23.0655 188.913 23.0456L188.908 23.0793ZM186.287 16.2085C185.415 16.1996 184.546 16.3297 183.714 16.594C183.222 16.7353 182.739 16.9091 182.269 17.1144C181.777 17.3418 181.364 17.71 181.082 18.1723C180.8 18.6346 180.661 19.1702 180.684 19.7114C180.684 21.0412 181.281 21.5568 182.809 21.5568C184.177 21.5568 185.141 21.046 185.7 20.0342C186.085 19.3211 186.22 18.5887 186.273 16.9313L186.287 16.2085ZM17.0903 22.7276H12.1949V21.8892H12.2865C14.3198 21.8892 14.6956 21.3496 14.6956 18.3045V13.3754H12.1949V12.5611H12.2865C14.3198 12.5611 14.6956 12.0793 14.6956 9.23173V9.15464C14.6956 4.73632 17.4035 3.16076 19.9378 3.16076C20.8186 3.1274 21.6793 3.42864 22.347 4.00395C22.5885 4.208 22.7855 4.45962 22.9256 4.74312C23.0657 5.02662 23.1459 5.33593 23.1612 5.65179C23.1725 5.80403 23.1511 5.95692 23.0984 6.1002C23.0457 6.24347 22.9629 6.3738 22.8557 6.48243C22.7484 6.59106 22.6191 6.67547 22.4765 6.73C22.3339 6.78452 22.1813 6.80788 22.029 6.79853C21.2436 6.79853 21.0268 6.2107 20.8148 5.64215C20.5739 4.99169 20.3329 4.37977 19.3693 4.37977C17.76 4.37977 17.1047 5.76261 17.1047 9.15464L17.0903 22.7276ZM10.3833 30.8367L10.3158 30.7981L9.32328 30.244C6.38416 28.6155 3.60886 27.0785 3.60886 22.2602C3.60886 17.0276 2.23566 16.5554 0.154183 15.8375L0 15.7845V15.0522L0.154183 14.9992C2.23566 14.2861 3.60886 13.8139 3.60886 8.57645C3.60886 3.75822 6.40343 2.21639 9.36183 0.57337C9.68304 0.399913 10.0043 0.221639 10.3255 0.0385459L10.3833 0L11.1349 0.925101L11.053 0.963646C8.26809 2.89094 6.42752 4.12441 6.42752 8.48009C6.42752 13.6934 5.26151 14.7438 2.79939 15.3991C5.26151 16.0495 6.42752 17.1047 6.42752 22.3181C6.42752 26.6545 8.26809 27.9313 11.053 29.8393L11.1349 29.8923L10.3833 30.8367Z" fill="white"/>
<path d="M191.342 30.8029L190.32 29.9019L190.45 29.7574C192.628 27.3868 197.162 22.4529 197.162 15.4183C197.162 8.3837 192.643 3.44983 190.465 1.07926L190.32 0.963622L191.38 0.0385217L191.438 0.086704C197.22 4.76039 200 9.77617 200 15.4183C200 21.0605 197.186 26.0955 191.399 30.7548L191.342 30.8029Z" fill="white"/>
</svg>
